<svg xmlns="http://www.w3.org/2000/svg" xmlns:xlink="http://www.w3.org/1999/xlink" width="500" zoomAndPan="magnify" viewBox="0 0 375 374.999991" height="500" preserveAspectRatio="xMidYMid meet" version="1.0"><defs><filter x="0%" y="0%" width="100%" height="100%" id="6988bb459b"><feColorMatrix values="0 0 0 0 1 0 0 0 0 1 0 0 0 0 1 0 0 0 1 0" color-interpolation-filters="sRGB"/></filter><g/><mask id="626c4ed085"><g filter="url(#6988bb459b)"><rect x="-37.5" width="450" fill="#000000" y="-37.499999" height="449.999989" fill-opacity="0.79"/></g></mask><clipPath id="9e8a0eccd2"><path d="M 0.558594 0.71875 L 74.71875 0.71875 L 74.71875 74.160156 L 0.558594 74.160156 Z M 0.558594 0.71875 " clip-rule="nonzero"/></clipPath><clipPath id="eba005e6e4"><rect x="0" width="75" y="0" height="75"/></clipPath></defs><rect x="-37.5" width="450" fill="#ffffff" y="-37.499999" height="449.999989" fill-opacity="1"/><rect x="-37.5" width="450" fill="#ffffff" y="-37.499999" height="449.999989" fill-opacity="1"/><g mask="url(#626c4ed085)"><g transform="matrix(1, 0, 0, 1, 190, 168)"><g clip-path="url(#eba005e6e4)"><g clip-path="url(#9e8a0eccd2)"><path fill="#fc0000" d="M 34.253906 33.902344 C 34.460938 33.484375 34.671875 33 34.949219 32.515625 C 34.394531 20.796875 28.082031 12.195312 15.808594 10.808594 C 3.394531 9.351562 2.214844 19.753906 6.375 28.839844 C 13.726562 44.582031 30.785156 57.964844 43.824219 69.0625 L 44.03125 69.199219 C 46.738281 66.773438 48.886719 63.511719 50.898438 60.460938 C 55.820312 53.179688 78.707031 12.542969 68.929688 5.816406 C 56.238281 -2.921875 43.40625 22.667969 38.34375 33.347656 C 38.277344 33.625 38.207031 33.832031 38.066406 34.039062 C 37.789062 34.527344 37.582031 35.011719 37.375 35.425781 C 36.957031 36.257812 35.917969 36.675781 35.085938 36.191406 C 34.183594 35.773438 33.839844 34.734375 34.253906 33.902344 Z M 37.652344 26.828125 C 44.308594 13.515625 55.542969 -4.933594 70.039062 2.488281 C 85.917969 10.601562 55.195312 66.496094 43.199219 73.984375 C 42.296875 74.261719 41.328125 73.777344 41.050781 72.875 C 40.84375 72.390625 40.910156 71.835938 41.1875 71.417969 C 28.082031 60.738281 10.191406 45.273438 3.253906 30.296875 C -2.5 17.882812 1.660156 5.675781 16.085938 7.34375 C 28.222656 8.730469 35.433594 16.21875 37.652344 26.828125 Z M 37.652344 26.828125 " fill-opacity="1" fill-rule="evenodd"/></g></g></g></g><g fill="#560216" fill-opacity="1"><g transform="translate(36.890627, 204.45003)"><g><path d="M 10.078125 -8.0625 C 12.140625 -8.425781 14.34375 -8.8125 16.6875 -9.21875 C 19.03125 -9.625 21.453125 -10.015625 23.953125 -10.390625 C 26.460938 -10.765625 28.992188 -11.082031 31.546875 -11.34375 L 36 -15.96875 C 37.9375 -18 39.816406 -19.941406 41.640625 -21.796875 C 43.472656 -23.648438 45.207031 -25.304688 46.84375 -26.765625 C 48.488281 -28.234375 50 -29.382812 51.375 -30.21875 C 52.757812 -31.0625 53.972656 -31.484375 55.015625 -31.484375 C 55.703125 -31.484375 56.226562 -31.289062 56.59375 -30.90625 C 56.957031 -30.519531 57.140625 -29.972656 57.140625 -29.265625 C 57.140625 -28.835938 57.03125 -28.316406 56.8125 -27.703125 C 56.601562 -27.097656 56.257812 -26.34375 55.78125 -25.4375 C 55.300781 -24.539062 54.660156 -23.429688 53.859375 -22.109375 C 53.066406 -20.796875 52.070312 -19.195312 50.875 -17.3125 C 50.320312 -16.457031 49.773438 -15.601562 49.234375 -14.75 C 48.703125 -13.90625 48.171875 -13.066406 47.640625 -12.234375 C 48.722656 -12.210938 49.769531 -12.179688 50.78125 -12.140625 C 51.789062 -12.097656 52.765625 -12.023438 53.703125 -11.921875 C 53.921875 -11.898438 54.097656 -11.816406 54.234375 -11.671875 C 54.367188 -11.535156 54.4375 -11.359375 54.4375 -11.140625 C 54.4375 -10.929688 54.359375 -10.742188 54.203125 -10.578125 C 54.046875 -10.421875 53.859375 -10.34375 53.640625 -10.34375 L 53.546875 -10.34375 C 52.492188 -10.445312 51.390625 -10.523438 50.234375 -10.578125 C 49.078125 -10.628906 47.898438 -10.65625 46.703125 -10.65625 C 45.628906 -8.820312 44.726562 -7.128906 44 -5.578125 C 43.269531 -4.023438 42.90625 -2.773438 42.90625 -1.828125 C 42.90625 -1.035156 43.070312 -0.472656 43.40625 -0.140625 C 43.738281 0.191406 44.3125 0.359375 45.125 0.359375 C 46.625 0.359375 48.828125 -0.625 51.734375 -2.59375 C 54.648438 -4.570312 58.335938 -7.550781 62.796875 -11.53125 C 62.941406 -11.675781 63.113281 -11.75 63.3125 -11.75 C 63.539062 -11.75 63.726562 -11.671875 63.875 -11.515625 C 64.03125 -11.359375 64.109375 -11.171875 64.109375 -10.953125 C 64.109375 -10.691406 64.015625 -10.5 63.828125 -10.375 C 59.179688 -6.21875 55.347656 -3.125 52.328125 -1.09375 C 49.304688 0.9375 46.90625 1.953125 45.125 1.953125 C 43.882812 1.953125 42.9375 1.628906 42.28125 0.984375 C 41.632812 0.347656 41.3125 -0.585938 41.3125 -1.828125 C 41.3125 -2.859375 41.648438 -4.144531 42.328125 -5.6875 C 43.015625 -7.226562 43.863281 -8.882812 44.875 -10.65625 C 42.84375 -10.632812 40.769531 -10.550781 38.65625 -10.40625 C 36.550781 -10.257812 34.425781 -10.078125 32.28125 -9.859375 C 30.5 -8.054688 28.703125 -6.28125 26.890625 -4.53125 C 25.085938 -2.789062 23.285156 -1.164062 21.484375 0.34375 C 19.691406 1.851562 17.925781 3.179688 16.1875 4.328125 C 14.457031 5.472656 12.773438 6.367188 11.140625 7.015625 C 9.515625 7.671875 7.972656 8 6.515625 8 C 5.378906 8 4.242188 7.710938 3.109375 7.140625 C 1.972656 6.578125 1 5.8125 0.1875 4.84375 C 0.0625 4.675781 0 4.503906 0 4.328125 C 0 4.097656 0.078125 3.90625 0.234375 3.75 C 0.398438 3.601562 0.585938 3.53125 0.796875 3.53125 C 1.015625 3.53125 1.21875 3.617188 1.40625 3.796875 C 2.070312 4.609375 2.859375 5.25 3.765625 5.71875 C 4.679688 6.1875 5.597656 6.421875 6.515625 6.421875 C 8.117188 6.421875 9.84375 5.988281 11.6875 5.125 C 13.53125 4.257812 15.453125 3.078125 17.453125 1.578125 C 19.453125 0.078125 21.488281 -1.628906 23.5625 -3.546875 C 25.644531 -5.460938 27.726562 -7.472656 29.8125 -9.578125 C 26.257812 -9.191406 22.789062 -8.71875 19.40625 -8.15625 C 16.019531 -7.601562 12.898438 -7.035156 10.046875 -6.453125 C 9.453125 -6.242188 8.851562 -6.023438 8.25 -5.796875 C 7.65625 -5.566406 7.101562 -5.394531 6.59375 -5.28125 C 6.09375 -5.164062 5.703125 -5.179688 5.421875 -5.328125 C 5.253906 -5.421875 5.140625 -5.59375 5.078125 -5.84375 C 5.015625 -6.101562 5.054688 -6.335938 5.203125 -6.546875 C 5.328125 -6.722656 5.484375 -6.867188 5.671875 -6.984375 C 5.867188 -7.097656 6.085938 -7.191406 6.328125 -7.265625 C 6.796875 -7.429688 7.328125 -7.566406 7.921875 -7.671875 C 8.523438 -7.785156 9.242188 -7.914062 10.078125 -8.0625 Z M 33.984375 -11.59375 C 36.015625 -11.769531 38.015625 -11.914062 39.984375 -12.03125 C 41.960938 -12.144531 43.898438 -12.210938 45.796875 -12.234375 C 46.378906 -13.222656 46.988281 -14.210938 47.625 -15.203125 C 48.269531 -16.203125 48.90625 -17.1875 49.53125 -18.15625 C 50.601562 -19.84375 51.59375 -21.421875 52.5 -22.890625 C 53.414062 -24.359375 54.15625 -25.648438 54.71875 -26.765625 C 55.28125 -27.890625 55.5625 -28.722656 55.5625 -29.265625 C 55.5625 -29.710938 55.347656 -29.9375 54.921875 -29.9375 C 54.066406 -29.9375 53.03125 -29.535156 51.8125 -28.734375 C 50.59375 -27.929688 49.210938 -26.832031 47.671875 -25.4375 C 46.128906 -24.039062 44.472656 -22.4375 42.703125 -20.625 C 40.929688 -18.820312 39.070312 -16.90625 37.125 -14.875 C 36.613281 -14.332031 36.09375 -13.785156 35.5625 -13.234375 C 35.039062 -12.679688 34.515625 -12.132812 33.984375 -11.59375 Z M 33.984375 -11.59375 "/></g></g></g><g fill="#560216" fill-opacity="1"><g transform="translate(98.981504, 204.45003)"><g><path d="M -4.078125 -0.15625 C -4.335938 -0.15625 -4.550781 -0.25 -4.71875 -0.4375 C -4.894531 -0.632812 -4.984375 -0.863281 -4.984375 -1.125 C -4.984375 -1.445312 -4.789062 -2.03125 -4.40625 -2.875 C -4.019531 -3.71875 -3.5 -4.710938 -2.84375 -5.859375 C -2.1875 -7.003906 -1.460938 -8.203125 -0.671875 -9.453125 C 0.117188 -10.710938 0.929688 -11.941406 1.765625 -13.140625 C 2.597656 -14.335938 3.378906 -15.394531 4.109375 -16.3125 C 4.253906 -16.507812 4.457031 -16.609375 4.71875 -16.609375 C 4.9375 -16.609375 5.117188 -16.53125 5.265625 -16.375 C 5.421875 -16.226562 5.5 -16.046875 5.5 -15.828125 C 5.5 -15.617188 5.441406 -15.453125 5.328125 -15.328125 C 4.710938 -14.554688 4.019531 -13.613281 3.25 -12.5 C 2.476562 -11.382812 1.710938 -10.222656 0.953125 -9.015625 C 0.191406 -7.804688 -0.507812 -6.664062 -1.15625 -5.59375 C -1.394531 -5.207031 -1.445312 -4.953125 -1.3125 -4.828125 C -1.1875 -4.710938 -0.898438 -4.878906 -0.453125 -5.328125 C 1.921875 -7.703125 3.910156 -9.617188 5.515625 -11.078125 C 7.128906 -12.535156 8.457031 -13.597656 9.5 -14.265625 C 10.550781 -14.929688 11.410156 -15.265625 12.078125 -15.265625 C 12.585938 -15.265625 12.984375 -15.101562 13.265625 -14.78125 C 13.546875 -14.457031 13.6875 -14.035156 13.6875 -13.515625 C 13.6875 -13.046875 13.566406 -12.453125 13.328125 -11.734375 C 13.097656 -11.015625 12.8125 -10.238281 12.46875 -9.40625 C 12.125 -8.570312 11.769531 -7.757812 11.40625 -6.96875 C 11.207031 -6.539062 11.035156 -6.160156 10.890625 -5.828125 C 10.742188 -5.492188 10.613281 -5.179688 10.5 -4.890625 C 10.3125 -4.472656 10.273438 -4.207031 10.390625 -4.09375 C 10.503906 -3.976562 10.753906 -4.082031 11.140625 -4.40625 C 11.546875 -4.75 12.03125 -5.179688 12.59375 -5.703125 C 13.164062 -6.222656 13.816406 -6.828125 14.546875 -7.515625 C 16.003906 -8.867188 17.195312 -9.941406 18.125 -10.734375 C 19.0625 -11.523438 19.816406 -12.09375 20.390625 -12.4375 C 20.972656 -12.789062 21.46875 -12.96875 21.875 -12.96875 C 22.445312 -12.96875 22.878906 -12.789062 23.171875 -12.4375 C 23.460938 -12.09375 23.609375 -11.628906 23.609375 -11.046875 C 23.609375 -10.410156 23.453125 -9.613281 23.140625 -8.65625 C 22.828125 -7.707031 22.5 -6.789062 22.15625 -5.90625 C 21.769531 -4.90625 21.507812 -4.179688 21.375 -3.734375 C 21.238281 -3.296875 21.171875 -2.992188 21.171875 -2.828125 C 21.171875 -2.566406 21.207031 -2.398438 21.28125 -2.328125 C 21.351562 -2.253906 21.539062 -2.21875 21.84375 -2.21875 C 22.71875 -2.21875 23.703125 -2.476562 24.796875 -3 C 25.890625 -3.53125 27.050781 -4.242188 28.28125 -5.140625 C 29.507812 -6.035156 30.773438 -7.035156 32.078125 -8.140625 C 33.390625 -9.242188 34.695312 -10.375 36 -11.53125 C 36.132812 -11.675781 36.304688 -11.75 36.515625 -11.75 C 36.734375 -11.75 36.914062 -11.671875 37.0625 -11.515625 C 37.21875 -11.359375 37.296875 -11.171875 37.296875 -10.953125 C 37.296875 -10.691406 37.207031 -10.5 37.03125 -10.375 C 35.726562 -9.21875 34.398438 -8.0625 33.046875 -6.90625 C 31.703125 -5.75 30.359375 -4.695312 29.015625 -3.75 C 27.679688 -2.8125 26.40625 -2.054688 25.1875 -1.484375 C 23.96875 -0.921875 22.851562 -0.640625 21.84375 -0.640625 C 20.34375 -0.640625 19.59375 -1.367188 19.59375 -2.828125 C 19.59375 -3.210938 19.707031 -3.734375 19.9375 -4.390625 C 20.175781 -5.054688 20.425781 -5.742188 20.6875 -6.453125 C 21.007812 -7.335938 21.3125 -8.195312 21.59375 -9.03125 C 21.882812 -9.863281 22.03125 -10.535156 22.03125 -11.046875 C 22.03125 -11.265625 21.9375 -11.375 21.75 -11.375 C 21.570312 -11.375 21.253906 -11.210938 20.796875 -10.890625 C 20.335938 -10.566406 19.691406 -10.039062 18.859375 -9.3125 C 18.023438 -8.582031 16.953125 -7.597656 15.640625 -6.359375 C 14.316406 -5.117188 13.242188 -4.144531 12.421875 -3.4375 C 11.609375 -2.726562 10.953125 -2.222656 10.453125 -1.921875 C 9.953125 -1.628906 9.53125 -1.484375 9.1875 -1.484375 C 8.863281 -1.484375 8.609375 -1.59375 8.421875 -1.8125 C 8.242188 -2.039062 8.15625 -2.316406 8.15625 -2.640625 C 8.15625 -3.109375 8.34375 -3.800781 8.71875 -4.71875 C 9.09375 -5.644531 9.503906 -6.609375 9.953125 -7.609375 C 10.765625 -9.410156 11.328125 -10.742188 11.640625 -11.609375 C 11.953125 -12.472656 12.109375 -13.066406 12.109375 -13.390625 C 12.109375 -13.472656 12.097656 -13.539062 12.078125 -13.59375 C 12.054688 -13.65625 11.972656 -13.6875 11.828125 -13.6875 C 11.285156 -13.6875 10.128906 -12.945312 8.359375 -11.46875 C 6.597656 -9.988281 4.035156 -7.566406 0.671875 -4.203125 C -0.503906 -3.023438 -1.488281 -2.054688 -2.28125 -1.296875 C -3.070312 -0.535156 -3.671875 -0.15625 -4.078125 -0.15625 Z M -4.078125 -0.15625 "/></g></g></g><g fill="#560216" fill-opacity="1"><g transform="translate(134.270778, 204.45003)"><g><path d="M 1.828125 -0.859375 C -1.015625 -0.859375 -2.4375 -2.125 -2.4375 -4.65625 C -2.4375 -5.582031 -2.242188 -6.535156 -1.859375 -7.515625 C -1.472656 -8.503906 -0.945312 -9.460938 -0.28125 -10.390625 C 0.375 -11.316406 1.113281 -12.148438 1.9375 -12.890625 C 2.757812 -13.628906 3.613281 -14.207031 4.5 -14.625 C 5.394531 -15.050781 6.269531 -15.265625 7.125 -15.265625 C 7.96875 -15.265625 8.640625 -15.046875 9.140625 -14.609375 C 9.640625 -14.179688 9.890625 -13.582031 9.890625 -12.8125 C 9.890625 -12.425781 9.679688 -11.925781 9.265625 -11.3125 C 8.847656 -10.707031 8.226562 -10.109375 7.40625 -9.515625 C 6.582031 -8.929688 5.554688 -8.472656 4.328125 -8.140625 C 3.109375 -7.804688 1.675781 -7.71875 0.03125 -7.875 C -0.226562 -7.332031 -0.441406 -6.785156 -0.609375 -6.234375 C -0.773438 -5.691406 -0.859375 -5.164062 -0.859375 -4.65625 C -0.859375 -3.84375 -0.660156 -3.269531 -0.265625 -2.9375 C 0.128906 -2.601562 0.828125 -2.4375 1.828125 -2.4375 C 2.640625 -2.4375 3.617188 -2.609375 4.765625 -2.953125 C 5.910156 -3.296875 7.15625 -3.757812 8.5 -4.34375 C 9.851562 -4.9375 11.21875 -5.625 12.59375 -6.40625 C 13.976562 -7.1875 15.304688 -8.015625 16.578125 -8.890625 C 17.859375 -9.773438 19.003906 -10.664062 20.015625 -11.5625 C 20.140625 -11.6875 20.3125 -11.75 20.53125 -11.75 C 20.757812 -11.75 20.945312 -11.671875 21.09375 -11.515625 C 21.25 -11.359375 21.328125 -11.171875 21.328125 -10.953125 C 21.328125 -10.710938 21.234375 -10.507812 21.046875 -10.34375 C 19.890625 -9.394531 18.632812 -8.457031 17.28125 -7.53125 C 15.925781 -6.601562 14.523438 -5.734375 13.078125 -4.921875 C 11.640625 -4.117188 10.222656 -3.410156 8.828125 -2.796875 C 7.441406 -2.191406 6.148438 -1.71875 4.953125 -1.375 C 3.765625 -1.03125 2.722656 -0.859375 1.828125 -0.859375 Z M 0.9375 -9.40625 C 2.21875 -9.34375 3.320312 -9.4375 4.25 -9.6875 C 5.1875 -9.945312 5.953125 -10.269531 6.546875 -10.65625 C 7.148438 -11.050781 7.59375 -11.445312 7.875 -11.84375 C 8.164062 -12.238281 8.3125 -12.5625 8.3125 -12.8125 C 8.3125 -13.394531 7.914062 -13.6875 7.125 -13.6875 C 6.445312 -13.6875 5.734375 -13.492188 4.984375 -13.109375 C 4.234375 -12.722656 3.507812 -12.207031 2.8125 -11.5625 C 2.113281 -10.914062 1.488281 -10.195312 0.9375 -9.40625 Z M 0.9375 -9.40625 "/></g></g></g><g fill="#560216" fill-opacity="1"><g transform="translate(153.740724, 204.45003)"><g><path d="M 1.828125 -12.984375 C 2.273438 -13.640625 2.671875 -14.203125 3.015625 -14.671875 C 3.359375 -15.148438 3.679688 -15.570312 3.984375 -15.9375 C 4.390625 -16.40625 4.835938 -16.640625 5.328125 -16.640625 C 5.523438 -16.640625 5.703125 -16.582031 5.859375 -16.46875 C 6.023438 -16.363281 6.109375 -16.195312 6.109375 -15.96875 C 6.109375 -15.644531 5.960938 -15.285156 5.671875 -14.890625 C 5.378906 -14.492188 5.015625 -14.070312 4.578125 -13.625 C 4.140625 -13.1875 3.695312 -12.742188 3.25 -12.296875 C 2.132812 -10.753906 1.128906 -9.300781 0.234375 -7.9375 C -0.648438 -6.582031 -1.390625 -5.378906 -1.984375 -4.328125 C -2.242188 -3.816406 -2.320312 -3.472656 -2.21875 -3.296875 C -2.113281 -3.128906 -1.789062 -3.296875 -1.25 -3.796875 C -0.96875 -4.066406 -0.671875 -4.351562 -0.359375 -4.65625 C -0.0546875 -4.957031 0.273438 -5.28125 0.640625 -5.625 C 2.953125 -7.9375 4.914062 -9.796875 6.53125 -11.203125 C 8.15625 -12.617188 9.539062 -13.648438 10.6875 -14.296875 C 11.832031 -14.941406 12.832031 -15.265625 13.6875 -15.265625 C 14.28125 -15.265625 14.734375 -15.085938 15.046875 -14.734375 C 15.359375 -14.378906 15.515625 -13.890625 15.515625 -13.265625 C 15.515625 -12.640625 15.375 -11.867188 15.09375 -10.953125 C 14.820312 -10.035156 14.515625 -9.125 14.171875 -8.21875 C 13.828125 -7.238281 13.515625 -6.296875 13.234375 -5.390625 C 12.953125 -4.492188 12.8125 -3.742188 12.8125 -3.140625 C 12.8125 -2.773438 12.863281 -2.53125 12.96875 -2.40625 C 13.082031 -2.28125 13.273438 -2.21875 13.546875 -2.21875 C 14.410156 -2.21875 15.390625 -2.476562 16.484375 -3 C 17.585938 -3.53125 18.75 -4.242188 19.96875 -5.140625 C 21.195312 -6.035156 22.460938 -7.035156 23.765625 -8.140625 C 25.078125 -9.242188 26.382812 -10.375 27.6875 -11.53125 C 27.832031 -11.675781 28.003906 -11.75 28.203125 -11.75 C 28.421875 -11.75 28.609375 -11.671875 28.765625 -11.515625 C 28.921875 -11.359375 29 -11.171875 29 -10.953125 C 29 -10.691406 28.90625 -10.5 28.71875 -10.375 C 27.425781 -9.21875 26.101562 -8.0625 24.75 -6.90625 C 23.40625 -5.75 22.0625 -4.695312 20.71875 -3.75 C 19.382812 -2.8125 18.109375 -2.054688 16.890625 -1.484375 C 15.671875 -0.921875 14.554688 -0.640625 13.546875 -0.640625 C 12.804688 -0.640625 12.234375 -0.859375 11.828125 -1.296875 C 11.429688 -1.734375 11.234375 -2.347656 11.234375 -3.140625 C 11.234375 -3.910156 11.394531 -4.796875 11.71875 -5.796875 C 12.039062 -6.796875 12.363281 -7.785156 12.6875 -8.765625 C 13.007812 -9.671875 13.296875 -10.519531 13.546875 -11.3125 C 13.804688 -12.101562 13.9375 -12.753906 13.9375 -13.265625 C 13.9375 -13.484375 13.878906 -13.625 13.765625 -13.6875 C 13.648438 -13.75 13.515625 -13.78125 13.359375 -13.78125 C 12.804688 -13.78125 12.035156 -13.457031 11.046875 -12.8125 C 10.066406 -12.175781 8.816406 -11.175781 7.296875 -9.8125 C 5.773438 -8.457031 3.921875 -6.6875 1.734375 -4.5 C 0.316406 -3.082031 -0.828125 -1.988281 -1.703125 -1.21875 C -2.578125 -0.445312 -3.25 -0.0625 -3.71875 -0.0625 C -4.0625 -0.0625 -4.332031 -0.175781 -4.53125 -0.40625 C -4.738281 -0.644531 -4.84375 -0.9375 -4.84375 -1.28125 C -4.84375 -1.820312 -4.5625 -2.664062 -4 -3.8125 C -3.445312 -4.957031 -2.664062 -6.320312 -1.65625 -7.90625 C -0.65625 -9.488281 0.503906 -11.179688 1.828125 -12.984375 Z M 1.828125 -12.984375 "/></g></g></g><g fill="#560216" fill-opacity="1"><g transform="translate(180.726555, 204.45003)"><g/></g></g><g fill="#560216" fill-opacity="1"><g transform="translate(198.979629, 204.45003)"><g/></g></g><g fill="#560216" fill-opacity="1"><g transform="translate(217.232702, 204.45003)"><g/></g></g><g fill="#560216" fill-opacity="1"><g transform="translate(235.488274, 204.45003)"><g><path d="M 6.8125 -18.5625 C 6.613281 -18.5625 6.429688 -18.640625 6.265625 -18.796875 C 6.109375 -18.960938 6.03125 -19.144531 6.03125 -19.34375 C 6.03125 -19.507812 6.085938 -19.675781 6.203125 -19.84375 C 6.367188 -20.039062 6.566406 -20.269531 6.796875 -20.53125 C 7.035156 -20.800781 7.234375 -21.066406 7.390625 -21.328125 C 7.535156 -21.523438 7.738281 -21.625 8 -21.625 C 8.226562 -21.625 8.414062 -21.546875 8.5625 -21.390625 C 8.71875 -21.242188 8.796875 -21.0625 8.796875 -20.84375 C 8.796875 -20.65625 8.734375 -20.484375 8.609375 -20.328125 L 7.453125 -18.859375 C 7.285156 -18.660156 7.070312 -18.5625 6.8125 -18.5625 Z M 1.828125 -0.546875 C 0.585938 -0.546875 -0.351562 -0.863281 -1 -1.5 C -1.65625 -2.144531 -1.984375 -3.085938 -1.984375 -4.328125 C -1.984375 -5.085938 -1.804688 -5.957031 -1.453125 -6.9375 C -1.109375 -7.925781 -0.660156 -8.929688 -0.109375 -9.953125 C 0.429688 -10.984375 1 -11.957031 1.59375 -12.875 C 2.195312 -13.800781 2.738281 -14.570312 3.21875 -15.1875 C 3.363281 -15.382812 3.566406 -15.484375 3.828125 -15.484375 C 4.054688 -15.484375 4.242188 -15.40625 4.390625 -15.25 C 4.546875 -15.101562 4.625 -14.914062 4.625 -14.6875 C 4.625 -14.488281 4.5625 -14.328125 4.4375 -14.203125 C 3.789062 -13.390625 3.175781 -12.515625 2.59375 -11.578125 C 2.019531 -10.648438 1.503906 -9.726562 1.046875 -8.8125 C 0.585938 -7.90625 0.234375 -7.0625 -0.015625 -6.28125 C -0.265625 -5.5 -0.390625 -4.847656 -0.390625 -4.328125 C -0.390625 -3.535156 -0.222656 -2.96875 0.109375 -2.625 C 0.441406 -2.289062 1.015625 -2.125 1.828125 -2.125 C 3.472656 -2.125 5.601562 -2.921875 8.21875 -4.515625 C 10.832031 -6.109375 13.875 -8.445312 17.34375 -11.53125 C 17.488281 -11.675781 17.660156 -11.75 17.859375 -11.75 C 18.078125 -11.75 18.265625 -11.671875 18.421875 -11.515625 C 18.578125 -11.359375 18.65625 -11.171875 18.65625 -10.953125 C 18.65625 -10.691406 18.5625 -10.5 18.375 -10.375 C 14.769531 -7.125 11.582031 -4.671875 8.8125 -3.015625 C 6.039062 -1.367188 3.710938 -0.546875 1.828125 -0.546875 Z M 1.828125 -0.546875 "/></g></g></g><g fill="#560216" fill-opacity="1"><g transform="translate(252.098571, 204.45003)"><g><path d="M -2.40625 -0.15625 C -3.925781 -0.15625 -4.6875 -0.9375 -4.6875 -2.5 C -4.6875 -3.3125 -4.484375 -4.179688 -4.078125 -5.109375 C -3.671875 -6.046875 -3.125 -6.992188 -2.4375 -7.953125 C -1.75 -8.921875 -0.96875 -9.835938 -0.09375 -10.703125 C 0.78125 -11.578125 1.695312 -12.359375 2.65625 -13.046875 C 3.625 -13.742188 4.578125 -14.285156 5.515625 -14.671875 C 6.460938 -15.066406 7.34375 -15.265625 8.15625 -15.265625 C 9.550781 -15.265625 10.472656 -14.640625 10.921875 -13.390625 C 11.546875 -14.992188 12.273438 -16.628906 13.109375 -18.296875 C 13.941406 -19.972656 14.828125 -21.578125 15.765625 -23.109375 C 16.710938 -24.640625 17.6875 -26.007812 18.6875 -27.21875 C 19.695312 -28.425781 20.695312 -29.378906 21.6875 -30.078125 C 22.6875 -30.773438 23.628906 -31.125 24.515625 -31.125 C 25.191406 -31.125 25.722656 -30.9375 26.109375 -30.5625 C 26.492188 -30.1875 26.6875 -29.664062 26.6875 -29 C 26.6875 -28.34375 26.394531 -27.476562 25.8125 -26.40625 C 25.238281 -25.332031 24.445312 -24.117188 23.4375 -22.765625 C 22.4375 -21.421875 21.273438 -19.992188 19.953125 -18.484375 C 18.640625 -16.972656 17.234375 -15.445312 15.734375 -13.90625 C 14.234375 -12.363281 12.710938 -10.882812 11.171875 -9.46875 C 10.578125 -7.570312 10.28125 -6.019531 10.28125 -4.8125 C 10.28125 -3.019531 11.019531 -2.125 12.5 -2.125 C 14.144531 -2.125 16.273438 -2.921875 18.890625 -4.515625 C 21.503906 -6.109375 24.546875 -8.445312 28.015625 -11.53125 C 28.160156 -11.675781 28.332031 -11.75 28.53125 -11.75 C 28.757812 -11.75 28.945312 -11.671875 29.09375 -11.515625 C 29.25 -11.359375 29.328125 -11.171875 29.328125 -10.953125 C 29.328125 -10.691406 29.238281 -10.5 29.0625 -10.375 C 25.445312 -7.125 22.253906 -4.671875 19.484375 -3.015625 C 16.710938 -1.367188 14.382812 -0.546875 12.5 -0.546875 C 11.28125 -0.546875 10.34375 -0.914062 9.6875 -1.65625 C 9.03125 -2.394531 8.703125 -3.445312 8.703125 -4.8125 C 8.703125 -5.601562 8.820312 -6.523438 9.0625 -7.578125 C 7.4375 -6.160156 5.882812 -4.890625 4.40625 -3.765625 C 2.925781 -2.648438 1.597656 -1.769531 0.421875 -1.125 C -0.753906 -0.476562 -1.695312 -0.15625 -2.40625 -0.15625 Z M 12.296875 -12.78125 C 13.929688 -14.40625 15.515625 -16.035156 17.046875 -17.671875 C 18.578125 -19.316406 19.945312 -20.890625 21.15625 -22.390625 C 22.363281 -23.890625 23.320312 -25.210938 24.03125 -26.359375 C 24.738281 -27.503906 25.09375 -28.382812 25.09375 -29 C 25.09375 -29.15625 25.050781 -29.285156 24.96875 -29.390625 C 24.894531 -29.492188 24.742188 -29.546875 24.515625 -29.546875 C 23.765625 -29.546875 22.953125 -29.207031 22.078125 -28.53125 C 21.210938 -27.863281 20.328125 -26.960938 19.421875 -25.828125 C 18.523438 -24.691406 17.640625 -23.40625 16.765625 -21.96875 C 15.890625 -20.53125 15.070312 -19.019531 14.3125 -17.4375 C 13.550781 -15.851562 12.878906 -14.300781 12.296875 -12.78125 Z M -2.40625 -1.734375 C -1.914062 -1.734375 -1.242188 -1.957031 -0.390625 -2.40625 C 0.453125 -2.851562 1.414062 -3.472656 2.5 -4.265625 C 3.59375 -5.066406 4.765625 -5.992188 6.015625 -7.046875 C 7.273438 -8.109375 8.554688 -9.25 9.859375 -10.46875 C 9.878906 -10.507812 9.890625 -10.546875 9.890625 -10.578125 C 9.890625 -10.609375 9.898438 -10.632812 9.921875 -10.65625 C 9.648438 -10.664062 9.535156 -10.945312 9.578125 -11.5 C 9.660156 -12.957031 9.1875 -13.6875 8.15625 -13.6875 C 7.363281 -13.6875 6.46875 -13.425781 5.46875 -12.90625 C 4.476562 -12.394531 3.476562 -11.722656 2.46875 -10.890625 C 1.46875 -10.054688 0.550781 -9.132812 -0.28125 -8.125 C -1.125 -7.125 -1.804688 -6.132812 -2.328125 -5.15625 C -2.847656 -4.175781 -3.109375 -3.289062 -3.109375 -2.5 C -3.109375 -2.175781 -3.0625 -1.96875 -2.96875 -1.875 C -2.875 -1.78125 -2.6875 -1.734375 -2.40625 -1.734375 Z M -2.40625 -1.734375 "/></g></g></g><g fill="#560216" fill-opacity="1"><g transform="translate(279.417345, 204.45003)"><g><path d="M 1.828125 -0.859375 C -1.015625 -0.859375 -2.4375 -2.125 -2.4375 -4.65625 C -2.4375 -5.582031 -2.242188 -6.535156 -1.859375 -7.515625 C -1.472656 -8.503906 -0.945312 -9.460938 -0.28125 -10.390625 C 0.375 -11.316406 1.113281 -12.148438 1.9375 -12.890625 C 2.757812 -13.628906 3.613281 -14.207031 4.5 -14.625 C 5.394531 -15.050781 6.269531 -15.265625 7.125 -15.265625 C 7.96875 -15.265625 8.640625 -15.046875 9.140625 -14.609375 C 9.640625 -14.179688 9.890625 -13.582031 9.890625 -12.8125 C 9.890625 -12.425781 9.679688 -11.925781 9.265625 -11.3125 C 8.847656 -10.707031 8.226562 -10.109375 7.40625 -9.515625 C 6.582031 -8.929688 5.554688 -8.472656 4.328125 -8.140625 C 3.109375 -7.804688 1.675781 -7.71875 0.03125 -7.875 C -0.226562 -7.332031 -0.441406 -6.785156 -0.609375 -6.234375 C -0.773438 -5.691406 -0.859375 -5.164062 -0.859375 -4.65625 C -0.859375 -3.84375 -0.660156 -3.269531 -0.265625 -2.9375 C 0.128906 -2.601562 0.828125 -2.4375 1.828125 -2.4375 C 2.640625 -2.4375 3.617188 -2.609375 4.765625 -2.953125 C 5.910156 -3.296875 7.15625 -3.757812 8.5 -4.34375 C 9.851562 -4.9375 11.21875 -5.625 12.59375 -6.40625 C 13.976562 -7.1875 15.304688 -8.015625 16.578125 -8.890625 C 17.859375 -9.773438 19.003906 -10.664062 20.015625 -11.5625 C 20.140625 -11.6875 20.3125 -11.75 20.53125 -11.75 C 20.757812 -11.75 20.945312 -11.671875 21.09375 -11.515625 C 21.25 -11.359375 21.328125 -11.171875 21.328125 -10.953125 C 21.328125 -10.710938 21.234375 -10.507812 21.046875 -10.34375 C 19.890625 -9.394531 18.632812 -8.457031 17.28125 -7.53125 C 15.925781 -6.601562 14.523438 -5.734375 13.078125 -4.921875 C 11.640625 -4.117188 10.222656 -3.410156 8.828125 -2.796875 C 7.441406 -2.191406 6.148438 -1.71875 4.953125 -1.375 C 3.765625 -1.03125 2.722656 -0.859375 1.828125 -0.859375 Z M 0.9375 -9.40625 C 2.21875 -9.34375 3.320312 -9.4375 4.25 -9.6875 C 5.1875 -9.945312 5.953125 -10.269531 6.546875 -10.65625 C 7.148438 -11.050781 7.59375 -11.445312 7.875 -11.84375 C 8.164062 -12.238281 8.3125 -12.5625 8.3125 -12.8125 C 8.3125 -13.394531 7.914062 -13.6875 7.125 -13.6875 C 6.445312 -13.6875 5.734375 -13.492188 4.984375 -13.109375 C 4.234375 -12.722656 3.507812 -12.207031 2.8125 -11.5625 C 2.113281 -10.914062 1.488281 -10.195312 0.9375 -9.40625 Z M 0.9375 -9.40625 "/></g></g></g><g fill="#560216" fill-opacity="1"><g transform="translate(298.887291, 204.45003)"><g><path d="M 0.21875 -0.0625 C -0.738281 -0.0625 -1.492188 -0.351562 -2.046875 -0.9375 C -2.609375 -1.53125 -2.890625 -2.320312 -2.890625 -3.3125 C -2.890625 -4.226562 -2.734375 -5.171875 -2.421875 -6.140625 C -2.109375 -7.117188 -1.664062 -8.0625 -1.09375 -8.96875 C -0.53125 -9.882812 0.117188 -10.6875 0.859375 -11.375 C 1.222656 -11.738281 1.492188 -11.820312 1.671875 -11.625 L 1.890625 -11.375 C 2.210938 -12.53125 2.785156 -13.46875 3.609375 -14.1875 C 4.429688 -14.90625 5.390625 -15.265625 6.484375 -15.265625 C 7.472656 -15.265625 8.25 -14.953125 8.8125 -14.328125 C 9.382812 -13.703125 9.671875 -12.851562 9.671875 -11.78125 C 9.671875 -10.644531 9.394531 -9.429688 8.84375 -8.140625 C 8.300781 -6.847656 7.601562 -5.632812 6.75 -4.5 C 7.113281 -4.4375 7.507812 -4.40625 7.9375 -4.40625 C 9.15625 -4.40625 10.328125 -4.597656 11.453125 -4.984375 C 12.578125 -5.367188 13.617188 -5.851562 14.578125 -6.4375 C 15.546875 -7.03125 16.410156 -7.65625 17.171875 -8.3125 C 17.929688 -8.976562 18.570312 -9.585938 19.09375 -10.140625 C 19.613281 -10.703125 19.984375 -11.132812 20.203125 -11.4375 C 20.367188 -11.644531 20.582031 -11.75 20.84375 -11.75 C 21.0625 -11.75 21.242188 -11.671875 21.390625 -11.515625 C 21.546875 -11.359375 21.625 -11.171875 21.625 -10.953125 C 21.625 -10.785156 21.578125 -10.625 21.484375 -10.46875 C 21.253906 -10.164062 20.851562 -9.707031 20.28125 -9.09375 C 19.71875 -8.488281 19.015625 -7.828125 18.171875 -7.109375 C 17.335938 -6.398438 16.382812 -5.722656 15.3125 -5.078125 C 14.25 -4.429688 13.09375 -3.894531 11.84375 -3.46875 C 10.601562 -3.039062 9.300781 -2.828125 7.9375 -2.828125 C 7.125 -2.828125 6.351562 -2.941406 5.625 -3.171875 C 4.769531 -2.253906 3.863281 -1.503906 2.90625 -0.921875 C 1.957031 -0.347656 1.0625 -0.0625 0.21875 -0.0625 Z M 5.203125 -5.109375 C 6.035156 -6.117188 6.722656 -7.234375 7.265625 -8.453125 C 7.816406 -9.671875 8.09375 -10.78125 8.09375 -11.78125 C 8.09375 -13.050781 7.554688 -13.6875 6.484375 -13.6875 C 5.546875 -13.6875 4.757812 -13.273438 4.125 -12.453125 C 3.5 -11.640625 3.1875 -10.613281 3.1875 -9.375 C 3.1875 -7.34375 3.859375 -5.921875 5.203125 -5.109375 Z M 0.21875 -1.640625 C 0.800781 -1.640625 1.4375 -1.847656 2.125 -2.265625 C 2.820312 -2.679688 3.492188 -3.222656 4.140625 -3.890625 C 3.328125 -4.441406 2.703125 -5.179688 2.265625 -6.109375 C 1.828125 -7.046875 1.609375 -8.132812 1.609375 -9.375 C 1.609375 -9.46875 1.609375 -9.5625 1.609375 -9.65625 C 1.609375 -9.75 1.617188 -9.835938 1.640625 -9.921875 C 0.765625 -9.023438 0.0546875 -7.972656 -0.484375 -6.765625 C -1.035156 -5.554688 -1.3125 -4.40625 -1.3125 -3.3125 C -1.3125 -2.195312 -0.800781 -1.640625 0.21875 -1.640625 Z M 0.21875 -1.640625 "/></g></g></g><g fill="#560216" fill-opacity="1"><g transform="translate(318.509341, 204.45003)"><g><path d="M -7.390625 9.796875 C -8.097656 9.796875 -8.679688 9.585938 -9.140625 9.171875 C -9.597656 8.753906 -9.828125 8.203125 -9.828125 7.515625 C -9.828125 6.785156 -9.578125 6.0625 -9.078125 5.34375 C -8.585938 4.625 -7.773438 3.84375 -6.640625 3 C -5.515625 2.15625 -4.019531 1.207031 -2.15625 0.15625 L -2.0625 -0.1875 C -1.539062 -2.65625 -1.054688 -4.875 -0.609375 -6.84375 C -0.160156 -8.8125 0.316406 -10.484375 0.828125 -11.859375 C 1.347656 -13.242188 1.960938 -14.296875 2.671875 -15.015625 C 3.390625 -15.734375 4.273438 -16.09375 5.328125 -16.09375 C 6.742188 -16.09375 8.0625 -15.40625 9.28125 -14.03125 C 9.40625 -13.90625 9.46875 -13.734375 9.46875 -13.515625 C 9.46875 -13.304688 9.390625 -13.117188 9.234375 -12.953125 C 9.078125 -12.796875 8.890625 -12.71875 8.671875 -12.71875 C 8.429688 -12.71875 8.226562 -12.804688 8.0625 -12.984375 C 7.1875 -14.003906 6.273438 -14.515625 5.328125 -14.515625 C 4.390625 -14.515625 3.625 -14.019531 3.03125 -13.03125 C 2.445312 -12.050781 1.910156 -10.550781 1.421875 -8.53125 C 0.941406 -6.507812 0.367188 -3.953125 -0.296875 -0.859375 C 0.796875 -1.441406 2.003906 -2.066406 3.328125 -2.734375 C 4.660156 -3.410156 6.117188 -4.128906 7.703125 -4.890625 C 10.054688 -6.035156 12.347656 -7.171875 14.578125 -8.296875 C 16.804688 -9.421875 18.742188 -10.53125 20.390625 -11.625 C 20.460938 -11.664062 20.535156 -11.695312 20.609375 -11.71875 C 20.679688 -11.738281 20.757812 -11.75 20.84375 -11.75 C 21.0625 -11.75 21.242188 -11.671875 21.390625 -11.515625 C 21.546875 -11.359375 21.625 -11.171875 21.625 -10.953125 C 21.625 -10.691406 21.503906 -10.46875 21.265625 -10.28125 C 19.566406 -9.164062 17.582031 -8.035156 15.3125 -6.890625 C 13.050781 -5.742188 10.742188 -4.601562 8.390625 -3.46875 C 6.484375 -2.550781 4.773438 -1.707031 3.265625 -0.9375 C 1.753906 -0.164062 0.410156 0.539062 -0.765625 1.1875 C -1.472656 4.125 -2.363281 6.289062 -3.4375 7.6875 C -4.507812 9.09375 -5.828125 9.796875 -7.390625 9.796875 Z M -7.234375 8.34375 C -6.304688 8.34375 -5.460938 7.84375 -4.703125 6.84375 C -3.941406 5.851562 -3.265625 4.332031 -2.671875 2.28125 C -4.703125 3.476562 -6.132812 4.46875 -6.96875 5.25 C -7.800781 6.03125 -8.21875 6.742188 -8.21875 7.390625 C -8.21875 7.617188 -8.148438 7.832031 -8.015625 8.03125 C -7.878906 8.238281 -7.617188 8.34375 -7.234375 8.34375 Z M -7.234375 8.34375 "/></g></g></g><g fill="#222222" fill-opacity="1"><g transform="translate(156.925775, 289.002343)"><g><path d="M 0.28125 -0.703125 L 7.953125 -19.59375 L 10.859375 -19.59375 L 18.421875 -0.703125 L 15.984375 0.28125 L 13.796875 -5.3125 L 4.734375 -5.3125 L 2.546875 0.21875 Z M 5.578125 -7.5625 L 12.9375 -7.5625 L 9.265625 -16.96875 Z M 5.578125 -7.5625 "/></g></g></g><g fill="#222222" fill-opacity="1"><g transform="translate(175.627228, 289.002343)"><g><path d="M 4.671875 -12.125 C 5.191406 -12.90625 5.847656 -13.5625 6.640625 -14.09375 C 7.441406 -14.625 8.363281 -14.890625 9.40625 -14.890625 C 10.5625 -14.890625 11.503906 -14.613281 12.234375 -14.0625 C 12.960938 -13.519531 13.484375 -12.769531 13.796875 -11.8125 C 14.378906 -12.675781 15.066406 -13.40625 15.859375 -14 C 16.648438 -14.59375 17.632812 -14.890625 18.8125 -14.890625 C 19.59375 -14.890625 20.273438 -14.757812 20.859375 -14.5 C 21.453125 -14.238281 21.945312 -13.867188 22.34375 -13.390625 C 22.738281 -12.921875 23.03125 -12.351562 23.21875 -11.6875 C 23.414062 -11.03125 23.515625 -10.296875 23.515625 -9.484375 L 23.515625 0 L 21 0 L 21 -9.296875 C 21 -10.304688 20.765625 -11.125 20.296875 -11.75 C 19.828125 -12.375 19.1875 -12.6875 18.375 -12.6875 C 17.9375 -12.6875 17.519531 -12.601562 17.125 -12.4375 C 16.738281 -12.269531 16.367188 -12.039062 16.015625 -11.75 C 15.660156 -11.457031 15.320312 -11.117188 15 -10.734375 C 14.6875 -10.347656 14.398438 -9.953125 14.140625 -9.546875 L 14.140625 0 L 11.625 0 L 11.625 -9.296875 C 11.625 -10.304688 11.390625 -11.125 10.921875 -11.75 C 10.453125 -12.375 9.804688 -12.6875 8.984375 -12.6875 C 8.578125 -12.6875 8.175781 -12.601562 7.78125 -12.4375 C 7.394531 -12.28125 7.019531 -12.0625 6.65625 -11.78125 C 6.289062 -11.507812 5.945312 -11.1875 5.625 -10.8125 C 5.3125 -10.4375 5.023438 -10.039062 4.765625 -9.625 L 4.765625 0 L 2.234375 0 L 2.234375 -14.5625 L 4.671875 -14.5625 Z M 4.671875 -12.125 "/></g></g></g><g fill="#222222" fill-opacity="1"><g transform="translate(201.243739, 289.002343)"><g><path d="M 3.84375 -6.25 C 4.007812 -4.882812 4.484375 -3.816406 5.265625 -3.046875 C 6.046875 -2.285156 7.082031 -1.90625 8.375 -1.90625 C 9.207031 -1.90625 9.957031 -1.992188 10.625 -2.171875 C 11.300781 -2.347656 11.953125 -2.578125 12.578125 -2.859375 L 13.15625 -0.703125 C 12.488281 -0.378906 11.734375 -0.125 10.890625 0.0625 C 10.046875 0.25 9.101562 0.34375 8.0625 0.34375 C 7.019531 0.34375 6.078125 0.171875 5.234375 -0.171875 C 4.390625 -0.523438 3.675781 -1.019531 3.09375 -1.65625 C 2.507812 -2.300781 2.054688 -3.09375 1.734375 -4.03125 C 1.421875 -4.976562 1.265625 -6.0625 1.265625 -7.28125 C 1.265625 -8.363281 1.421875 -9.367188 1.734375 -10.296875 C 2.054688 -11.234375 2.503906 -12.039062 3.078125 -12.71875 C 3.660156 -13.40625 4.351562 -13.9375 5.15625 -14.3125 C 5.957031 -14.695312 6.851562 -14.890625 7.84375 -14.890625 C 8.882812 -14.890625 9.796875 -14.710938 10.578125 -14.359375 C 11.367188 -14.003906 12.023438 -13.519531 12.546875 -12.90625 C 13.066406 -12.289062 13.457031 -11.570312 13.71875 -10.75 C 13.976562 -9.925781 14.109375 -9.054688 14.109375 -8.140625 C 14.109375 -7.492188 14.082031 -6.863281 14.03125 -6.25 Z M 7.78125 -12.71875 C 6.675781 -12.71875 5.773438 -12.34375 5.078125 -11.59375 C 4.378906 -10.84375 3.957031 -9.738281 3.8125 -8.28125 L 11.78125 -8.28125 C 11.78125 -9.707031 11.425781 -10.800781 10.71875 -11.5625 C 10.007812 -12.332031 9.03125 -12.71875 7.78125 -12.71875 Z M 7.78125 -12.71875 "/></g></g></g><g fill="#222222" fill-opacity="1"><g transform="translate(216.473661, 289.002343)"><g><path d="M 4.671875 -12.125 C 5.191406 -12.90625 5.859375 -13.5625 6.671875 -14.09375 C 7.484375 -14.625 8.453125 -14.890625 9.578125 -14.890625 C 11.222656 -14.890625 12.445312 -14.394531 13.25 -13.40625 C 14.0625 -12.414062 14.46875 -11.109375 14.46875 -9.484375 L 14.46875 0 L 11.953125 0 L 11.953125 -9.21875 C 11.953125 -10.28125 11.707031 -11.125 11.21875 -11.75 C 10.738281 -12.375 10.050781 -12.6875 9.15625 -12.6875 C 8.726562 -12.6875 8.304688 -12.601562 7.890625 -12.4375 C 7.484375 -12.28125 7.085938 -12.0625 6.703125 -11.78125 C 6.316406 -11.507812 5.960938 -11.1875 5.640625 -10.8125 C 5.316406 -10.4375 5.023438 -10.039062 4.765625 -9.625 L 4.765625 0 L 2.234375 0 L 2.234375 -14.5625 L 4.671875 -14.5625 Z M 4.671875 -12.125 "/></g></g></g><g fill="#222222" fill-opacity="1"><g transform="translate(233.047405, 289.002343)"><g><path d="M 0.28125 -18.90625 L 2.890625 -19.90625 L 9.046875 -2.90625 L 15.234375 -19.828125 L 17.640625 -18.90625 L 10.46875 0 L 7.46875 0 Z M 0.28125 -18.90625 "/></g></g></g><g fill="#222222" fill-opacity="1"><g transform="translate(250.964961, 289.002343)"><g><path d="M 4.765625 0 L 2.234375 0 L 2.234375 -14.5625 L 4.765625 -14.5625 Z M 3.5 -17.046875 C 3.007812 -17.046875 2.59375 -17.21875 2.25 -17.5625 C 1.90625 -17.914062 1.734375 -18.332031 1.734375 -18.8125 C 1.734375 -19.351562 1.890625 -19.78125 2.203125 -20.09375 C 2.523438 -20.414062 2.957031 -20.578125 3.5 -20.578125 C 3.988281 -20.578125 4.40625 -20.40625 4.75 -20.0625 C 5.09375 -19.71875 5.265625 -19.300781 5.265625 -18.8125 C 5.265625 -18.269531 5.101562 -17.835938 4.78125 -17.515625 C 4.46875 -17.203125 4.039062 -17.046875 3.5 -17.046875 Z M 3.5 -17.046875 "/></g></g></g><g fill="#222222" fill-opacity="1"><g transform="translate(257.964007, 289.002343)"><g><path d="M 7.75 0.34375 C 6.851562 0.34375 6.007812 0.164062 5.21875 -0.1875 C 4.425781 -0.550781 3.734375 -1.054688 3.140625 -1.703125 C 2.554688 -2.359375 2.097656 -3.144531 1.765625 -4.0625 C 1.429688 -4.988281 1.265625 -6.035156 1.265625 -7.203125 C 1.265625 -8.296875 1.4375 -9.3125 1.78125 -10.25 C 2.125 -11.195312 2.585938 -12.007812 3.171875 -12.6875 C 3.765625 -13.375 4.453125 -13.910156 5.234375 -14.296875 C 6.015625 -14.691406 6.847656 -14.890625 7.734375 -14.890625 C 8.703125 -14.890625 9.535156 -14.691406 10.234375 -14.296875 C 10.929688 -13.910156 11.476562 -13.515625 11.875 -13.109375 L 11.875 -20.71875 L 14.390625 -20.71875 L 14.390625 -3.53125 C 14.390625 -2.820312 14.5625 -2.359375 14.90625 -2.140625 C 15.25 -1.921875 15.628906 -1.8125 16.046875 -1.8125 L 15.515625 0.140625 C 13.742188 0.140625 12.660156 -0.566406 12.265625 -1.984375 C 11.835938 -1.390625 11.257812 -0.851562 10.53125 -0.375 C 9.800781 0.101562 8.875 0.34375 7.75 0.34375 Z M 8.3125 -1.90625 C 9.007812 -1.90625 9.671875 -2.066406 10.296875 -2.390625 C 10.921875 -2.722656 11.445312 -3.148438 11.875 -3.671875 L 11.875 -10.890625 C 11.519531 -11.335938 11.03125 -11.753906 10.40625 -12.140625 C 9.78125 -12.523438 9.070312 -12.71875 8.28125 -12.71875 C 7.613281 -12.71875 7.003906 -12.578125 6.453125 -12.296875 C 5.898438 -12.015625 5.425781 -11.628906 5.03125 -11.140625 C 4.644531 -10.660156 4.347656 -10.085938 4.140625 -9.421875 C 3.941406 -8.753906 3.84375 -8.039062 3.84375 -7.28125 C 3.84375 -6.5 3.953125 -5.78125 4.171875 -5.125 C 4.398438 -4.46875 4.710938 -3.898438 5.109375 -3.421875 C 5.515625 -2.953125 5.988281 -2.582031 6.53125 -2.3125 C 7.082031 -2.039062 7.675781 -1.90625 8.3125 -1.90625 Z M 8.3125 -1.90625 "/></g></g></g><g fill="#222222" fill-opacity="1"><g transform="translate(275.125669, 289.002343)"><g><path d="M 2.328125 -1.546875 C 2.328125 -2.117188 2.488281 -2.570312 2.8125 -2.90625 C 3.132812 -3.25 3.597656 -3.421875 4.203125 -3.421875 C 4.679688 -3.421875 5.113281 -3.234375 5.5 -2.859375 C 5.882812 -2.484375 6.078125 -2.046875 6.078125 -1.546875 C 6.078125 -0.984375 5.898438 -0.523438 5.546875 -0.171875 C 5.191406 0.171875 4.742188 0.34375 4.203125 0.34375 C 3.691406 0.34375 3.25 0.15625 2.875 -0.21875 C 2.507812 -0.59375 2.328125 -1.035156 2.328125 -1.546875 Z M 2.328125 -1.546875 "/></g></g></g><g fill="#222222" fill-opacity="1"><g transform="translate(282.82459, 289.002343)"><g><path d="M 11.53125 -11.90625 C 10.988281 -12.164062 10.484375 -12.351562 10.015625 -12.46875 C 9.554688 -12.59375 9.035156 -12.65625 8.453125 -12.65625 C 7.796875 -12.65625 7.179688 -12.53125 6.609375 -12.28125 C 6.046875 -12.039062 5.554688 -11.691406 5.140625 -11.234375 C 4.734375 -10.785156 4.414062 -10.234375 4.1875 -9.578125 C 3.957031 -8.921875 3.84375 -8.175781 3.84375 -7.34375 C 3.84375 -6.570312 3.945312 -5.859375 4.15625 -5.203125 C 4.375 -4.554688 4.675781 -3.984375 5.0625 -3.484375 C 5.457031 -2.992188 5.925781 -2.609375 6.46875 -2.328125 C 7.007812 -2.046875 7.613281 -1.90625 8.28125 -1.90625 C 9 -1.90625 9.609375 -1.976562 10.109375 -2.125 C 10.609375 -2.28125 11.148438 -2.515625 11.734375 -2.828125 L 12.515625 -0.703125 C 11.921875 -0.378906 11.265625 -0.125 10.546875 0.0625 C 9.835938 0.25 9.03125 0.34375 8.125 0.34375 C 7.070312 0.34375 6.125 0.15625 5.28125 -0.21875 C 4.445312 -0.59375 3.726562 -1.113281 3.125 -1.78125 C 2.53125 -2.457031 2.070312 -3.257812 1.75 -4.1875 C 1.425781 -5.125 1.265625 -6.15625 1.265625 -7.28125 C 1.265625 -8.320312 1.425781 -9.304688 1.75 -10.234375 C 2.070312 -11.160156 2.539062 -11.96875 3.15625 -12.65625 C 3.78125 -13.34375 4.523438 -13.882812 5.390625 -14.28125 C 6.253906 -14.6875 7.226562 -14.890625 8.3125 -14.890625 C 9.15625 -14.890625 9.882812 -14.816406 10.5 -14.671875 C 11.113281 -14.523438 11.710938 -14.3125 12.296875 -14.03125 Z M 11.53125 -11.90625 "/></g></g></g><g fill="#222222" fill-opacity="1"><g transform="translate(295.758804, 289.002343)"><g><path d="M 13.046875 -7.28125 C 13.046875 -8.007812 12.925781 -8.695312 12.6875 -9.34375 C 12.457031 -10 12.132812 -10.566406 11.71875 -11.046875 C 11.300781 -11.535156 10.804688 -11.925781 10.234375 -12.21875 C 9.660156 -12.507812 9.039062 -12.65625 8.375 -12.65625 C 6.894531 -12.65625 5.742188 -12.171875 4.921875 -11.203125 C 4.109375 -10.234375 3.703125 -8.945312 3.703125 -7.34375 C 3.703125 -6.613281 3.816406 -5.914062 4.046875 -5.25 C 4.273438 -4.582031 4.597656 -4 5.015625 -3.5 C 5.441406 -3.007812 5.9375 -2.617188 6.5 -2.328125 C 7.070312 -2.046875 7.695312 -1.90625 8.375 -1.90625 C 9.101562 -1.90625 9.753906 -2.035156 10.328125 -2.296875 C 10.910156 -2.554688 11.398438 -2.921875 11.796875 -3.390625 C 12.203125 -3.867188 12.507812 -4.4375 12.71875 -5.09375 C 12.9375 -5.75 13.046875 -6.476562 13.046875 -7.28125 Z M 1.125 -7.28125 C 1.125 -8.457031 1.304688 -9.515625 1.671875 -10.453125 C 2.046875 -11.398438 2.554688 -12.195312 3.203125 -12.84375 C 3.847656 -13.5 4.613281 -14.003906 5.5 -14.359375 C 6.382812 -14.710938 7.34375 -14.890625 8.375 -14.890625 C 9.382812 -14.890625 10.332031 -14.710938 11.21875 -14.359375 C 12.101562 -14.003906 12.867188 -13.5 13.515625 -12.84375 C 14.171875 -12.195312 14.6875 -11.40625 15.0625 -10.46875 C 15.4375 -9.539062 15.625 -8.5 15.625 -7.34375 C 15.625 -6.175781 15.441406 -5.117188 15.078125 -4.171875 C 14.710938 -3.234375 14.203125 -2.425781 13.546875 -1.75 C 12.898438 -1.082031 12.128906 -0.566406 11.234375 -0.203125 C 10.347656 0.160156 9.394531 0.34375 8.375 0.34375 C 7.320312 0.34375 6.351562 0.15625 5.46875 -0.21875 C 4.582031 -0.59375 3.816406 -1.113281 3.171875 -1.78125 C 2.535156 -2.457031 2.035156 -3.257812 1.671875 -4.1875 C 1.304688 -5.125 1.125 -6.15625 1.125 -7.28125 Z M 1.125 -7.28125 "/></g></g></g><g fill="#222222" fill-opacity="1"><g transform="translate(312.500525, 289.002343)"><g><path d="M 4.671875 -12.125 C 5.191406 -12.90625 5.847656 -13.5625 6.640625 -14.09375 C 7.441406 -14.625 8.363281 -14.890625 9.40625 -14.890625 C 10.5625 -14.890625 11.503906 -14.613281 12.234375 -14.0625 C 12.960938 -13.519531 13.484375 -12.769531 13.796875 -11.8125 C 14.378906 -12.675781 15.066406 -13.40625 15.859375 -14 C 16.648438 -14.59375 17.632812 -14.890625 18.8125 -14.890625 C 19.59375 -14.890625 20.273438 -14.757812 20.859375 -14.5 C 21.453125 -14.238281 21.945312 -13.867188 22.34375 -13.390625 C 22.738281 -12.921875 23.03125 -12.351562 23.21875 -11.6875 C 23.414062 -11.03125 23.515625 -10.296875 23.515625 -9.484375 L 23.515625 0 L 21 0 L 21 -9.296875 C 21 -10.304688 20.765625 -11.125 20.296875 -11.75 C 19.828125 -12.375 19.1875 -12.6875 18.375 -12.6875 C 17.9375 -12.6875 17.519531 -12.601562 17.125 -12.4375 C 16.738281 -12.269531 16.367188 -12.039062 16.015625 -11.75 C 15.660156 -11.457031 15.320312 -11.117188 15 -10.734375 C 14.6875 -10.347656 14.398438 -9.953125 14.140625 -9.546875 L 14.140625 0 L 11.625 0 L 11.625 -9.296875 C 11.625 -10.304688 11.390625 -11.125 10.921875 -11.75 C 10.453125 -12.375 9.804688 -12.6875 8.984375 -12.6875 C 8.578125 -12.6875 8.175781 -12.601562 7.78125 -12.4375 C 7.394531 -12.28125 7.019531 -12.0625 6.65625 -11.78125 C 6.289062 -11.507812 5.945312 -11.1875 5.625 -10.8125 C 5.3125 -10.4375 5.023438 -10.039062 4.765625 -9.625 L 4.765625 0 L 2.234375 0 L 2.234375 -14.5625 L 4.671875 -14.5625 Z M 4.671875 -12.125 "/></g></g></g><g fill="#531f55" fill-opacity="1"><g transform="translate(32.226565, 136.049895)"><g><path d="M 13.625 -12.15625 L 9.703125 -3.3125 L 7.734375 -3.3125 L 3.78125 -12.15625 L 3.78125 0 L 1.890625 0 L 1.890625 -14.703125 L 4.6875 -14.703125 L 8.75 -5.390625 L 12.765625 -14.703125 L 15.625 -14.703125 L 15.625 0 L 13.625 0 Z M 13.625 -12.15625 "/></g></g></g><g fill="#531f55" fill-opacity="1"><g transform="translate(49.730794, 136.049895)"><g><path d="M 0.9375 -5.390625 C 0.9375 -6.203125 1.0625 -6.960938 1.3125 -7.671875 C 1.570312 -8.378906 1.925781 -8.992188 2.375 -9.515625 C 2.832031 -10.035156 3.378906 -10.441406 4.015625 -10.734375 C 4.660156 -11.023438 5.359375 -11.171875 6.109375 -11.171875 C 6.742188 -11.171875 7.316406 -11.0625 7.828125 -10.84375 C 8.335938 -10.625 8.78125 -10.351562 9.15625 -10.03125 L 9.15625 -10.921875 L 10.875 -10.921875 L 10.875 -2.640625 C 10.875 -2.109375 11.003906 -1.757812 11.265625 -1.59375 C 11.523438 -1.4375 11.804688 -1.359375 12.109375 -1.359375 L 11.71875 0.109375 C 10.375 0.109375 9.5625 -0.4375 9.28125 -1.53125 C 9.113281 -1.3125 8.921875 -1.09375 8.703125 -0.875 C 8.484375 -0.65625 8.234375 -0.460938 7.953125 -0.296875 C 7.671875 -0.128906 7.351562 0 7 0.09375 C 6.65625 0.195312 6.273438 0.25 5.859375 0.25 C 5.171875 0.25 4.53125 0.117188 3.9375 -0.140625 C 3.34375 -0.410156 2.820312 -0.789062 2.375 -1.28125 C 1.9375 -1.769531 1.585938 -2.359375 1.328125 -3.046875 C 1.066406 -3.742188 0.9375 -4.523438 0.9375 -5.390625 Z M 6.28125 -1.421875 C 6.8125 -1.421875 7.3125 -1.546875 7.78125 -1.796875 C 8.257812 -2.054688 8.660156 -2.390625 8.984375 -2.796875 L 8.984375 -8.65625 C 8.609375 -8.914062 8.191406 -9.125 7.734375 -9.28125 C 7.285156 -9.445312 6.804688 -9.53125 6.296875 -9.53125 C 5.796875 -9.53125 5.332031 -9.429688 4.90625 -9.234375 C 4.488281 -9.046875 4.128906 -8.769531 3.828125 -8.40625 C 3.523438 -8.050781 3.289062 -7.617188 3.125 -7.109375 C 2.957031 -6.609375 2.875 -6.054688 2.875 -5.453125 C 2.875 -4.867188 2.957031 -4.328125 3.125 -3.828125 C 3.289062 -3.335938 3.53125 -2.910156 3.84375 -2.546875 C 4.15625 -2.191406 4.515625 -1.914062 4.921875 -1.71875 C 5.335938 -1.519531 5.789062 -1.421875 6.28125 -1.421875 Z M 6.28125 -1.421875 "/></g></g></g><g fill="#531f55" fill-opacity="1"><g transform="translate(62.680561, 136.049895)"><g><path d="M 1.6875 -15.546875 L 3.5625 -15.546875 L 3.5625 -6.65625 L 8.5 -11.125 L 9.59375 -9.9375 L 5.375 -6.1875 L 10.515625 -1.046875 L 9.21875 0.203125 L 3.5625 -5.609375 L 3.5625 0 L 1.6875 0 Z M 1.6875 -15.546875 "/></g></g></g><g fill="#531f55" fill-opacity="1"><g transform="translate(73.09069, 136.049895)"><g><path d="M 2.875 -4.6875 C 3 -3.664062 3.351562 -2.863281 3.9375 -2.28125 C 4.53125 -1.707031 5.3125 -1.421875 6.28125 -1.421875 C 6.90625 -1.421875 7.46875 -1.488281 7.96875 -1.625 C 8.476562 -1.757812 8.960938 -1.929688 9.421875 -2.140625 L 9.875 -0.53125 C 9.363281 -0.289062 8.789062 -0.101562 8.15625 0.03125 C 7.53125 0.175781 6.828125 0.25 6.046875 0.25 C 5.265625 0.25 4.554688 0.117188 3.921875 -0.140625 C 3.296875 -0.398438 2.757812 -0.769531 2.3125 -1.25 C 1.875 -1.726562 1.535156 -2.320312 1.296875 -3.03125 C 1.054688 -3.738281 0.9375 -4.546875 0.9375 -5.453125 C 0.9375 -6.265625 1.054688 -7.019531 1.296875 -7.71875 C 1.535156 -8.425781 1.875 -9.035156 2.3125 -9.546875 C 2.75 -10.054688 3.265625 -10.453125 3.859375 -10.734375 C 4.460938 -11.023438 5.132812 -11.171875 5.875 -11.171875 C 6.664062 -11.171875 7.351562 -11.035156 7.9375 -10.765625 C 8.519531 -10.503906 9.007812 -10.140625 9.40625 -9.671875 C 9.800781 -9.210938 10.09375 -8.675781 10.28125 -8.0625 C 10.476562 -7.445312 10.578125 -6.796875 10.578125 -6.109375 C 10.578125 -5.617188 10.554688 -5.144531 10.515625 -4.6875 Z M 5.84375 -9.53125 C 5.007812 -9.53125 4.332031 -9.25 3.8125 -8.6875 C 3.289062 -8.132812 2.972656 -7.3125 2.859375 -6.21875 L 8.84375 -6.21875 C 8.84375 -7.28125 8.578125 -8.097656 8.046875 -8.671875 C 7.515625 -9.242188 6.78125 -9.53125 5.84375 -9.53125 Z M 5.84375 -9.53125 "/></g></g></g><g fill="#531f55" fill-opacity="1"><g transform="translate(84.508322, 136.049895)"><g/></g></g><g fill="#531f55" fill-opacity="1"><g transform="translate(90.804804, 136.049895)"><g><path d="M 6.390625 -7.4375 L 10.796875 -14.8125 L 12.375 -13.875 L 7.3125 -5.59375 L 7.3125 0 L 5.3125 0 L 5.3125 -5.59375 L 0.203125 -13.875 L 1.890625 -14.890625 Z M 6.390625 -7.4375 "/></g></g></g><g fill="#531f55" fill-opacity="1"><g transform="translate(102.012277, 136.049895)"><g><path d="M 9.78125 -5.453125 C 9.78125 -6.003906 9.691406 -6.523438 9.515625 -7.015625 C 9.347656 -7.503906 9.101562 -7.929688 8.78125 -8.296875 C 8.46875 -8.660156 8.097656 -8.945312 7.671875 -9.15625 C 7.242188 -9.375 6.78125 -9.484375 6.28125 -9.484375 C 5.175781 -9.484375 4.3125 -9.117188 3.6875 -8.390625 C 3.070312 -7.671875 2.765625 -6.707031 2.765625 -5.5 C 2.765625 -4.957031 2.851562 -4.4375 3.03125 -3.9375 C 3.207031 -3.4375 3.453125 -3 3.765625 -2.625 C 4.078125 -2.257812 4.445312 -1.96875 4.875 -1.75 C 5.300781 -1.53125 5.769531 -1.421875 6.28125 -1.421875 C 6.820312 -1.421875 7.3125 -1.519531 7.75 -1.71875 C 8.1875 -1.914062 8.550781 -2.191406 8.84375 -2.546875 C 9.144531 -2.910156 9.375 -3.335938 9.53125 -3.828125 C 9.695312 -4.316406 9.78125 -4.859375 9.78125 -5.453125 Z M 0.84375 -5.453125 C 0.84375 -6.335938 0.984375 -7.132812 1.265625 -7.84375 C 1.546875 -8.550781 1.925781 -9.148438 2.40625 -9.640625 C 2.882812 -10.128906 3.457031 -10.503906 4.125 -10.765625 C 4.789062 -11.035156 5.507812 -11.171875 6.28125 -11.171875 C 7.03125 -11.171875 7.738281 -11.035156 8.40625 -10.765625 C 9.070312 -10.503906 9.648438 -10.128906 10.140625 -9.640625 C 10.628906 -9.148438 11.015625 -8.550781 11.296875 -7.84375 C 11.578125 -7.144531 11.71875 -6.363281 11.71875 -5.5 C 11.71875 -4.632812 11.582031 -3.847656 11.3125 -3.140625 C 11.039062 -2.429688 10.65625 -1.820312 10.15625 -1.3125 C 9.664062 -0.8125 9.085938 -0.425781 8.421875 -0.15625 C 7.765625 0.113281 7.050781 0.25 6.28125 0.25 C 5.5 0.25 4.773438 0.109375 4.109375 -0.171875 C 3.441406 -0.453125 2.863281 -0.84375 2.375 -1.34375 C 1.894531 -1.84375 1.519531 -2.441406 1.25 -3.140625 C 0.976562 -3.847656 0.84375 -4.617188 0.84375 -5.453125 Z M 0.84375 -5.453125 "/></g></g></g><g fill="#531f55" fill-opacity="1"><g transform="translate(114.563275, 136.049895)"><g><path d="M 11.4375 0.109375 C 10.769531 0.109375 10.238281 -0.0195312 9.84375 -0.28125 C 9.457031 -0.550781 9.1875 -0.941406 9.03125 -1.453125 C 8.539062 -0.941406 7.976562 -0.53125 7.34375 -0.21875 C 6.707031 0.09375 6.007812 0.25 5.25 0.25 C 4.769531 0.25 4.3125 0.175781 3.875 0.03125 C 3.4375 -0.113281 3.046875 -0.347656 2.703125 -0.671875 C 2.359375 -0.992188 2.082031 -1.410156 1.875 -1.921875 C 1.675781 -2.441406 1.578125 -3.078125 1.578125 -3.828125 L 1.578125 -10.921875 L 3.46875 -10.921875 L 3.46875 -4.078125 C 3.46875 -3.222656 3.644531 -2.566406 4 -2.109375 C 4.351562 -1.648438 4.890625 -1.421875 5.609375 -1.421875 C 6.191406 -1.421875 6.75 -1.535156 7.28125 -1.765625 C 7.8125 -2.003906 8.289062 -2.316406 8.71875 -2.703125 L 8.71875 -10.921875 L 10.609375 -10.921875 L 10.609375 -2.828125 C 10.609375 -2.523438 10.640625 -2.28125 10.703125 -2.09375 C 10.773438 -1.90625 10.867188 -1.753906 10.984375 -1.640625 C 11.097656 -1.535156 11.226562 -1.460938 11.375 -1.421875 C 11.53125 -1.378906 11.6875 -1.359375 11.84375 -1.359375 Z M 11.4375 0.109375 "/></g></g></g><g fill="#531f55" fill-opacity="1"><g transform="translate(127.240204, 136.049895)"><g><path d="M 7.609375 -9.09375 C 7.335938 -9.207031 7.019531 -9.265625 6.65625 -9.265625 C 6.257812 -9.265625 5.875 -9.175781 5.5 -9 C 5.132812 -8.832031 4.804688 -8.582031 4.515625 -8.25 C 4.234375 -7.914062 4.003906 -7.484375 3.828125 -6.953125 C 3.648438 -6.429688 3.5625 -5.816406 3.5625 -5.109375 L 3.5625 0 L 1.6875 0 L 1.6875 -10.921875 L 3.5 -10.921875 L 3.5 -8.546875 C 3.632812 -8.878906 3.804688 -9.207031 4.015625 -9.53125 C 4.222656 -9.851562 4.46875 -10.132812 4.75 -10.375 C 5.039062 -10.613281 5.375 -10.804688 5.75 -10.953125 C 6.132812 -11.097656 6.554688 -11.171875 7.015625 -11.171875 C 7.222656 -11.171875 7.425781 -11.160156 7.625 -11.140625 C 7.832031 -11.117188 8.015625 -11.085938 8.171875 -11.046875 Z M 7.609375 -9.09375 "/></g></g></g><g fill="#531f55" fill-opacity="1"><g transform="translate(135.614532, 136.049895)"><g/></g></g><g fill="#531f55" fill-opacity="1"><g transform="translate(141.911013, 136.049895)"><g><path d="M 1.046875 -7.375 C 1.046875 -8.445312 1.203125 -9.445312 1.515625 -10.375 C 1.835938 -11.300781 2.296875 -12.101562 2.890625 -12.78125 C 3.484375 -13.457031 4.207031 -13.988281 5.0625 -14.375 C 5.914062 -14.757812 6.890625 -14.953125 7.984375 -14.953125 C 9.054688 -14.953125 10.023438 -14.75 10.890625 -14.34375 C 11.753906 -13.945312 12.484375 -13.40625 13.078125 -12.71875 C 13.671875 -12.039062 14.128906 -11.242188 14.453125 -10.328125 C 14.773438 -9.410156 14.9375 -8.425781 14.9375 -7.375 C 14.9375 -6.320312 14.773438 -5.332031 14.453125 -4.40625 C 14.140625 -3.488281 13.679688 -2.679688 13.078125 -1.984375 C 12.484375 -1.285156 11.757812 -0.738281 10.90625 -0.34375 C 10.050781 0.0507812 9.078125 0.25 7.984375 0.25 C 6.890625 0.25 5.914062 0.0507812 5.0625 -0.34375 C 4.207031 -0.738281 3.484375 -1.285156 2.890625 -1.984375 C 2.296875 -2.679688 1.835938 -3.488281 1.515625 -4.40625 C 1.203125 -5.332031 1.046875 -6.320312 1.046875 -7.375 Z M 3.09375 -7.375 C 3.09375 -6.613281 3.195312 -5.875 3.40625 -5.15625 C 3.625 -4.445312 3.941406 -3.816406 4.359375 -3.265625 C 4.785156 -2.722656 5.300781 -2.285156 5.90625 -1.953125 C 6.519531 -1.628906 7.210938 -1.46875 7.984375 -1.46875 C 8.796875 -1.46875 9.503906 -1.617188 10.109375 -1.921875 C 10.722656 -2.222656 11.234375 -2.632812 11.640625 -3.15625 C 12.054688 -3.6875 12.367188 -4.3125 12.578125 -5.03125 C 12.785156 -5.75 12.890625 -6.53125 12.890625 -7.375 C 12.890625 -8.125 12.773438 -8.847656 12.546875 -9.546875 C 12.328125 -10.253906 12.007812 -10.878906 11.59375 -11.421875 C 11.175781 -11.972656 10.660156 -12.410156 10.046875 -12.734375 C 9.441406 -13.066406 8.753906 -13.234375 7.984375 -13.234375 C 7.210938 -13.234375 6.519531 -13.082031 5.90625 -12.78125 C 5.300781 -12.476562 4.785156 -12.0625 4.359375 -11.53125 C 3.941406 -11.007812 3.625 -10.390625 3.40625 -9.671875 C 3.195312 -8.960938 3.09375 -8.195312 3.09375 -7.375 Z M 3.09375 -7.375 "/></g></g></g><g fill="#531f55" fill-opacity="1"><g transform="translate(157.883096, 136.049895)"><g><path d="M 14.96875 -11.03125 L 16.65625 -10.421875 L 13.1875 0 L 11.109375 0 L 8.59375 -8.125 L 6.046875 0 L 3.96875 0 L 0.53125 -10.421875 L 2.265625 -11.03125 L 5.078125 -2.140625 L 7.640625 -10.140625 L 9.6875 -10.140625 L 12.1875 -2.140625 Z M 14.96875 -11.03125 "/></g></g></g><g fill="#531f55" fill-opacity="1"><g transform="translate(175.05151, 136.049895)"><g><path d="M 3.5 -9.09375 C 3.894531 -9.675781 4.394531 -10.164062 5 -10.5625 C 5.613281 -10.96875 6.34375 -11.171875 7.1875 -11.171875 C 8.414062 -11.171875 9.332031 -10.800781 9.9375 -10.0625 C 10.550781 -9.320312 10.859375 -8.34375 10.859375 -7.125 L 10.859375 0 L 8.96875 0 L 8.96875 -6.90625 C 8.96875 -7.707031 8.785156 -8.34375 8.421875 -8.8125 C 8.054688 -9.28125 7.535156 -9.515625 6.859375 -9.515625 C 6.546875 -9.515625 6.234375 -9.453125 5.921875 -9.328125 C 5.609375 -9.210938 5.304688 -9.050781 5.015625 -8.84375 C 4.734375 -8.632812 4.46875 -8.390625 4.21875 -8.109375 C 3.976562 -7.828125 3.757812 -7.53125 3.5625 -7.21875 L 3.5625 0 L 1.6875 0 L 1.6875 -10.921875 L 3.5 -10.921875 Z M 3.5 -9.09375 "/></g></g></g></svg>